<svg id="Layer_1" data-name="Layer 1" xmlns="http://www.w3.org/2000/svg" x="0px" y="0px"
     width="120px" height="120px" viewBox="0 0 120 120">
    <defs>
        <style>.cls-1{fill:#72725f;}.cls-2{fill:#fff;}.cls-3{fill:none;stroke:#fff;stroke-miterlimit:10;}.cls-4{fill:#727260;}</style>
    </defs>
    <title>Grezan_Logo</title>
    <circle class="cls-1" cx="60" cy="60" r="60"/>
    <path class="cls-2" d="M92.25,50.84,86.31,40.32H83.63l-6.17,10.6V59H56.78V44.2h-2.9V40.6H50.51V37.23H47.15V33.91H43.87V31H39.82v3H37v3.32H33.74V40.6H30.56v3.55H27.75V92.79H37.2V80.53c0-1.22,1.33-4,5.12-4s5.07,2.78,5.07,3.94V93.1H92.25Z"/><line class="cls-3" x1="41.98" y1="31.62" x2="41.98" y2="18.21"/><line class="cls-3" x1="40.25" y1="26.4" x2="43.71" y2="26.4"/><line class="cls-3" x1="40.28" y1="28.18" x2="43.75" y2="28.18"/><line class="cls-3" x1="84.82" y1="40.95" x2="84.82" y2="27.01"/><line class="cls-3" x1="83.08" y1="35.69" x2="86.56" y2="35.69"/><line class="cls-3" x1="83.11" y1="37.47" x2="86.58" y2="37.47"/><polygon class="cls-2" points="42.38 19.92 47.14 22.23 42.38 24.53 42.38 19.92"/><circle class="cls-2" cx="84.85" cy="31.41" r="2.37"/><rect class="cls-4" x="32.68" y="50.73" width="4.05" height="8.25"/><rect class="cls-4" x="40.26" y="50.73" width="4.05" height="8.25"/><rect class="cls-4" x="47.84" y="50.73" width="4.05" height="8.25"/></svg>
