<svg id="Layer_1" data-name="Layer 1" xmlns="http://www.w3.org/2000/svg" x="0px" y="0px"
     width="135px" height="135px" viewBox="0 0 135 135">
    <defs>
        <style>.cls-1,.cls-2{fill:#72725f;}.cls-1{stroke:#72725f;}.cls-1,.cls-4{stroke-miterlimit:10;}.cls-3{fill:#fff;}.cls-4{fill:none;stroke:#fff;}</style>
    </defs>
    <title>Chateau Grezan</title>
    <circle class="cls-1" cx="67.5" cy="67.5" r="60"/>
    <path class="cls-2" d="M67.5,135A67.5,67.5,0,1,1,135,67.5,67.58,67.58,0,0,1,67.5,135Zm0-133A65.5,65.5,0,1,0,133,67.5,65.57,65.57,0,0,0,67.5,2Z"/>
    <path class="cls-3" d="M99.75,59.18,93.81,48.66H91.13L85,59.26v8.06H64.28V52.55h-2.9V48.94H58V45.58H54.65V42.26H51.37V39.31H47.32v3H44.45v3.32H41.24v3.27H38.06v3.55H35.25v48.65H44.7V88.88c0-1.22,1.33-4,5.12-4s5.07,2.78,5.07,3.94v12.58H99.75Z"/>
    <line class="cls-4" x1="49.48" y1="39.96" x2="49.48" y2="26.55"/>
    <line class="cls-4" x1="47.75" y1="34.74" x2="51.21" y2="34.74"/>
    <line class="cls-4" x1="47.78" y1="36.52" x2="51.25" y2="36.52"/>
    <line class="cls-4" x1="92.32" y1="49.29" x2="92.32" y2="35.36"/>
    <line class="cls-4" x1="90.58" y1="44.03" x2="94.06" y2="44.03"/>
    <line class="cls-4" x1="90.61" y1="45.81" x2="94.08" y2="45.81"/>
    <polygon class="cls-3" points="49.88 28.27 54.64 30.57 49.88 32.88 49.88 28.27"/>
    <circle class="cls-3" cx="92.35" cy="39.76" r="2.37"/>
    <rect class="cls-2" x="40.18" y="59.07" width="4.05" height="8.25"/>
    <rect class="cls-2" x="47.76" y="59.07" width="4.05" height="8.25"/>
    <rect class="cls-2" x="55.34" y="59.07" width="4.05" height="8.25"/>
</svg>
